<svg width="42" height="42" viewBox="0 0 42 42" fill="none" xmlns="http://www.w3.org/2000/svg">
<path d="M21 3.66669L6 10.3334V20.3334C6 29.5834 12.4 38.2334 21 40.3334C29.6 38.2334 36 29.5834 36 20.3334V10.3334L21 3.66669ZM32.6667 20.3334C32.6667 27.8667 27.7 34.8167 21 36.8834C14.3 34.8167 9.33333 27.8667 9.33333 20.3334V12.5L21 7.31669L32.6667 12.5V20.3334ZM13.35 21.3167L11 23.6667L17.6667 30.3334L31 17L28.65 14.6334L17.6667 25.6167L13.35 21.3167Z" fill="#3A923A"/>
<path opacity="0.3" d="M9.33337 12.5V20.3333C9.33337 27.8667 14.3 34.8167 21 36.8833C27.7 34.8333 32.6667 27.8667 32.6667 20.3333V12.5L21 7.31665L9.33337 12.5ZM31 17L17.6667 30.3333L11 23.6667L13.35 21.3167L17.6667 25.6166L28.65 14.6333L31 17Z" fill="#69AB4B"/>
</svg>
