<svg width="42" height="42" viewBox="0 0 42 42" fill="none" xmlns="http://www.w3.org/2000/svg">
<g clip-path="url(#clip0_14_209)">
<path opacity="0.3" d="M5.25 24H8.365C9.3275 22.9325 10.71 22.25 12.25 22.25C13.79 22.25 15.1725 22.9325 16.135 24H21V18.75H5.25V24ZM24.5 24H25.865C26.8275 22.9325 28.21 22.25 29.75 22.25C31.29 22.25 32.6725 22.9325 33.635 24H36.75V18.75H24.5V24Z" fill="#69AB4B"/>
<path d="M40.075 14.7075L37.555 7.1475C37.3209 6.45049 36.8742 5.84438 36.2778 5.41434C35.6814 4.9843 34.9653 4.75197 34.23 4.75H33.25V3C33.25 2.0375 32.4625 1.25 31.5 1.25H29.75C28.7875 1.25 28 2.0375 28 3V4.75H24.5C22.575 4.75 21 6.325 21 8.25V15.25H1.75V24C1.75 25.925 3.325 27.5 5.25 27.5H7C7 30.405 9.345 32.75 12.25 32.75C15.155 32.75 17.5 30.405 17.5 27.5H24.5C24.5 30.405 26.845 32.75 29.75 32.75C32.655 32.75 35 30.405 35 27.5H40.25V15.81C40.25 15.4425 40.1975 15.075 40.075 14.7075ZM12.25 29.25C11.2875 29.25 10.5 28.4625 10.5 27.5C10.5 26.5375 11.2875 25.75 12.25 25.75C13.2125 25.75 14 26.5375 14 27.5C14 28.4625 13.2125 29.25 12.25 29.25ZM21 24H16.135C15.1725 22.9325 13.8075 22.25 12.25 22.25C10.6925 22.25 9.3275 22.9325 8.365 24H5.25V18.75H21V24ZM24.5 8.25H34.23L36.5575 15.25H24.5V8.25ZM29.75 29.25C28.7875 29.25 28 28.4625 28 27.5C28 26.5375 28.7875 25.75 29.75 25.75C30.7125 25.75 31.5 26.5375 31.5 27.5C31.5 28.4625 30.7125 29.25 29.75 29.25ZM36.75 24H33.635C32.6725 22.9325 31.29 22.25 29.75 22.25C28.21 22.25 26.8275 22.9325 25.865 24H24.5V18.75H36.75V24Z" fill="#3A923A"/>
</g>
<defs>
<clipPath id="clip0_14_209">
<rect width="42" height="42" fill="white"/>
</clipPath>
</defs>
</svg>
