<svg width="42" height="42" viewBox="0 0 42 42" fill="none" xmlns="http://www.w3.org/2000/svg">
<path opacity="0.3" d="M13.055 16.555C9.93997 19.6875 9.71247 24.57 12.3025 28C14.98 23.555 18.83 19.88 23.45 17.5C19.4622 20.8881 16.5037 25.3259 14.91 30.31C16.2225 31.0625 17.6925 31.5 19.25 31.5C21.595 31.5 23.7825 30.59 25.445 28.945C28.49 25.9 30.3625 17.4475 31.15 10.8675C24.57 11.6375 16.1175 13.51 13.055 16.555Z" fill="#69AB4B"/>
<path d="M10.5875 14.0875C8.29287 16.3864 7.00415 19.5019 7.00415 22.75C7.00415 25.9981 8.29287 29.1136 10.5875 31.4125C12.985 33.81 16.1175 35 19.25 35C22.3825 35 25.515 33.81 27.9125 31.4125C34.0025 25.3225 35 7 35 7C35 7 16.6775 7.9975 10.5875 14.0875ZM25.445 28.945C23.7825 30.59 21.595 31.5 19.25 31.5C17.6925 31.5 16.2225 31.0625 14.91 30.31C16.52 25.27 19.495 20.8425 23.45 17.5C18.8475 19.88 14.98 23.555 12.3025 28C9.71247 24.57 9.93997 19.6875 13.0725 16.555C16.1175 13.51 24.57 11.6375 31.15 10.85C30.3625 17.43 28.49 25.8825 25.445 28.945Z" fill="#3A923A"/>
</svg>
