<svg width="15" height="12" viewBox="0 0 15 12" fill="none" xmlns="http://www.w3.org/2000/svg">
<path d="M12.3097 12C10.1475 12 8.45922 10.8104 7.27505 8.44531C5.98856 6.18295 3.82636 5.23784 0.677099 5.56481C1.15558 6.44609 2.86187 8.97937 6.43244 8.4422L6.49714 8.9093C1.9365 9.58972 0.135419 5.5072 0.121877 5.46672L0 5.18023L0.300933 5.1413C3.7737 4.69288 6.25188 5.72986 7.67379 8.2211C9.12579 11.1187 11.2775 12.1028 14.2552 11.2339C13.5721 9.40911 11.8583 8.46867 9.03551 8.36123L9.04454 7.89412C12.2043 7.91125 13.9753 7.02374 14.4613 5.19424C12.7641 4.70066 11.1932 5.06812 9.68402 6.3153C9.47431 6.53213 9.25331 6.73693 9.02197 6.92877L8.72104 6.58155C8.94523 6.35422 9.17244 6.14714 9.39814 5.95874C10.8893 4.43752 11.288 2.7248 10.6545 0.646166C8.71953 1.71117 7.85736 3.52355 8.01986 6.17672C8.0206 6.18188 8.0206 6.18713 8.01986 6.19229L7.56846 6.22343V6.20942C7.41799 3.87388 6.5152 2.31685 4.81342 1.43246C4.44327 2.61892 4.58321 3.768 5.24074 4.92176L4.85405 5.15687C4.08968 3.81004 3.96328 2.42273 4.47487 1.02919L4.55913 0.800311L4.7758 0.899961C6.21878 1.56793 7.17123 2.64227 7.65724 4.16037C7.97472 2.29194 8.97532 0.962242 10.6831 0.112106L10.9088 0L10.9916 0.244453C11.622 2.0833 11.5047 3.69949 10.629 5.13507C11.9516 4.43752 13.3373 4.33632 14.8059 4.82367L15 4.88906L14.9564 5.09459C14.6028 6.79486 13.384 7.82094 11.2534 8.20864C13.0966 8.68353 14.2477 9.71584 14.7487 11.3305L14.8179 11.5547L14.6013 11.6248C13.8595 11.8664 13.0873 11.9928 12.3097 12Z" fill="#F2C717"/>
</svg>
