<?xml version="1.0" encoding="utf-8"?>
<!-- Generator: Adobe Illustrator 23.0.5, SVG Export Plug-In . SVG Version: 6.00 Build 0)  -->
<svg version="1.1" id="Calque_1" xmlns="http://www.w3.org/2000/svg" xmlns:xlink="http://www.w3.org/1999/xlink" x="0px" y="0px"
	 viewBox="0 0 714.3 324.4" style="enable-background:new 0 0 714.3 324.4;" xml:space="preserve">
<style type="text/css">
	.st0{fill:#3A923A;}
	.st1{fill:#69AB4B;}
	.st2{fill:#F2C717;}
	.st3{fill:#3A923A;stroke:#F2C717;stroke-width:2.9851;stroke-miterlimit:10;}
</style>
<g>
	<path class="st3" d="M58.4,246.8c-10.6,0-21.2,0-31.9,0c-1.3,0-2.6,0.1-3.9-0.5c-1.7-0.8-2.4-1.7-2.4-3.6c0-0.6,0.2-1.2,0.3-1.8
		c1.7-8.4,3.4-16.8,5-25.2c2.5-12.5,5-25,7.5-37.5c2.2-10.9,4.6-21.7,6.8-32.5c2.1-10.5,4.1-21,6.2-31.6c1.4-7.2,3-14.5,4.4-21.7
		c2.5-12.6,5.1-25.2,7.6-37.8c0.9-4.6,1.8-9.1,2.8-13.7c0.1-0.6,0.3-1.2,0.4-1.7c0.5-1.6,1.5-2.7,3.3-2.7c1.4-0.1,2.8-0.4,4.2-0.4
		c12.9,0,25.8-0.2,38.7,0.1c5.3,0.1,10.7,0.1,16.1,0.6c13.1,1.2,25.8,4.2,37.7,10.1c6.9,3.4,13.2,7.7,18.6,13.2
		c5.7,5.8,10.2,12.5,13.4,20.1c3.4,8,5.2,16.3,6.3,24.8c1.1,8.1,0.8,16.2,0.5,24.3c-0.5,12.5-2.4,24.9-5.9,37
		c-3.7,12.7-9,24.6-16.5,35.5c-6.4,9.4-14.2,17.4-23.3,24c-9.3,6.8-19.6,11.8-30.6,15.3c-6.7,2.1-13.6,3.7-20.6,4.5
		c-3.7,0.4-7.3,0.8-11,1.2c-0.7,0.1-1.4,0-2.1,0C79.6,246.8,69,246.8,58.4,246.8C58.4,246.8,58.4,246.8,58.4,246.8z M82.6,213.6
		C82.6,213.6,82.6,213.6,82.6,213.6c0.6,0,1.2,0,1.8,0c4.7,0.1,9.3-0.1,13.9-1c7.6-1.4,14.7-4,21.4-7.8c7.4-4.2,13.6-9.7,18.8-16.3
		c6.8-8.6,11.2-18.5,14.2-29.1c1.9-6.7,3.2-13.4,3.8-20.3c0.5-5.3,0.8-10.7,1.1-16c0.1-3.1-0.1-6.2-0.4-9.3
		c-0.6-6.5-1.9-12.7-4.4-18.7c-3.2-7.6-8.2-13.6-15.1-18.1c-7.5-4.8-15.9-6.9-24.6-7.6c-4.2-0.3-8.3-0.1-12.5-0.1
		c-2.2,0-3.5,1.1-4.2,3.2c-0.2,0.7-0.4,1.4-0.5,2.1C93.4,86,91.2,97.4,89,108.9c-3.3,17.2-6.6,34.4-10,51.6
		c-2.4,12.2-5,24.3-7.4,36.4c-0.7,3.6-1.4,7.3-2,10.9c-0.7,4,0.6,5.7,4.5,5.8C76.9,213.6,79.7,213.6,82.6,213.6z"/>
	<path class="st3" d="M310.5,226.3c-1.7,0.2-3.1,0.9-4.3,1.9c-4,3.2-8,6.4-12,9.6c-5.7,4.5-11.9,7.9-18.7,10.3
		c-3.8,1.3-7.7,2.4-11.8,2.5c-1.3,0-2.6,0.6-3.9,0.5c-7.1-0.3-14-1.2-20.5-4.3c-7.5-3.6-13-9.1-17-16.3c-3.5-6.4-5.4-13.2-6.7-20.3
		c-1.7-9.3-1.8-18.8-1.1-28.2c0.7-9.1,2.4-18.2,5.2-27c2.3-7.4,5-14.6,8.6-21.5c3.7-7,7.9-13.6,13-19.6c5-6,10.6-11.3,16.8-16
		c8.6-6.5,18.1-10.9,28.7-13.1c6.1-1.3,12.4-1.5,18.5-0.8c9.5,1.1,17.4,5.6,23.7,12.7c1.6,1.9,2.8,4.1,4.2,6.2
		c0.6,0.9,0.9,2,2.4,2.2c1.2-1.2,2-2.8,2.7-4.4c1.5-3.5,3-7,4.4-10.5c0.8-2.1,2.1-2.9,4.4-2.8c8.1,0.1,16.2,0,24.3,0
		c0.4,0,0.7,0,1.1,0c2,0.2,3.2,1.4,3.3,3.5c0,1.2-0.1,2.4-0.3,3.6c-2.2,11-4.4,22-6.6,32.9c-3.2,16-6.4,32-9.7,48
		c-1.8,8.8-3.5,17.5-5.3,26.3c-2.6,12.7-5.1,25.5-7.7,38.2c-0.3,1.3-0.5,2.6-0.9,3.8c-0.7,2.2-1.6,2.9-3.8,3c-0.4,0-0.7,0-1.1,0
		c-8.5,0-16.9,0-25.4,0c-3.3,0-4-0.7-4-4c0-0.7,0-1.5,0.1-2.1c0.8-3.7,0.3-7.4,0.5-11.1C311.7,228.6,311.7,227.3,310.5,226.3z
		 M257.4,184.6c0,5.8,1,11.3,2.2,16.7c0.5,2.4,1.4,4.5,2.5,6.7c2.7,5.3,7.2,8.2,13,9c6,0.8,11.9-0.2,17.4-2.9
		c3.6-1.8,7-4.2,10.1-6.7c7-5.7,11.7-12.8,13.3-21.8c0.2-1.1,0.2-2.1,0.4-3.2c2.2-11,4.4-21.9,6.6-32.9c0.8-3.9,1.6-7.7,2.3-11.6
		c0.6-3.2,0.1-6.1-1.7-8.8c-2.3-3.4-5.1-6.3-8.7-8.4c-5.7-3.4-11.7-4.4-18.2-2.8c-6.3,1.5-11.6,4.9-16.4,9.1
		c-5.1,4.5-8.8,10-12,15.9C261.1,155.9,258.5,170.1,257.4,184.6z"/>
	<path class="st3" d="M639.6,226.5c-1.9,0.4-3.3,1.4-4.6,2.7c-4.7,4.4-9.7,8.4-15.2,11.9c-6.8,4.3-14.1,7.4-22,9.1
		c-10.6,2.3-20.9,1.1-30.6-3.9c-6.3-3.2-11.2-8.1-14.8-14.2c-4.2-7.2-6.7-15-8-23.2c-0.5-3.6-0.8-7.1-0.7-10.7c0-1,0.1-1.9-0.1-2.9
		c-0.3-1.4-0.2-2.8,0-4.2c0.1-0.7,0.1-1.4,0-2.1c-0.1-10.8,1.8-21.3,4.7-31.7c2.4-8.7,5.7-17,10-24.8c4-7.2,8.6-14,14.1-20.2
		c4.4-5.1,9.2-9.6,14.6-13.6c8.9-6.6,18.7-11.4,29.6-13.7c8.8-1.9,17.6-1.5,26.1,1.4c8,2.8,14.3,8,18.8,15.3
		c0.8,1.3,1.5,2.7,3.1,3.5c1.7-0.6,2.3-2.2,3-3.7c1.2-3,2.3-6,3.6-9c2-4.7,1.8-4.3,6.6-4.3c6.1,0,12.2,0,18.3,0c1,0,1.9,0,2.9,0.1
		c3.3,0.4,5.4,2.6,5.7,5.9c0.1,1.2,0,2.4-0.3,3.6c-2.6,13.1-5.3,26.2-8,39.2c-2.3,11.3-4.5,22.7-6.8,34c-2.8,13.8-5.6,27.6-8.3,41.4
		c-1.8,8.8-3.5,17.5-5.3,26.3c-0.2,1.1-0.4,2.1-0.7,3.1c-1,3.9-3,5.3-6.8,5.8c-0.5,0.1-1,0-1.4,0c-6.9,0-13.9,0-20.8,0
		c-0.5,0-1,0-1.4,0c-3.9-0.4-4.2-1.6-4.1-4.5c0.1-4.2,0-8.4,0-12.5C640.7,229.1,640.7,227.6,639.6,226.5z M655,136
		c0.2-1.8-0.4-3.3-1.2-4.8c-3.1-5.3-7.2-9.4-12.9-11.8c-3.1-1.3-6.5-2-9.7-1.9c-3.9,0.1-7.7,1.1-11.3,2.9
		c-7.3,3.6-13.2,8.8-17.9,15.5c-5.6,8-9.2,16.9-11.8,26.3c-2.2,7.9-2.9,16.1-3.6,24.3c0,0.5,0.1,0.9,0.1,1.4
		c0.4,2.7,0.7,5.4,1.2,8.1c0.6,3,1.1,6.1,2.1,9c2,5.9,5.8,10.1,11.9,11.9c3.2,0.9,6.4,1,9.8,0.5c7.8-1.3,14.5-4.4,20.3-9.7
		c3.6-3.3,6.6-7.2,9.4-11.2c1.3-1.9,2.2-3.9,2.7-6.2c1-5,2.1-10,3.1-15c2.5-12.1,5-24.2,7.5-36.4C654.9,137.9,654.9,136.9,655,136z"
		/>
	<path class="st3" d="M442.8,20.2c5.1,0,10.3,0,15.4,0c1.2,0,2.4,0.1,3.5,0.6c1,0.4,1.6,1.1,1.5,2.2c-0.1,1.7-0.1,3.3-0.5,5
		c-3.9,19.8-7.9,39.5-11.9,59.2c-3.2,15.5-6.5,31-9.6,46.6c-2.8,13.8-5.5,27.6-8.2,41.4c-1.7,8.8-3.5,17.5-5.3,26.3
		c-0.3,1.6-0.7,3.3-0.9,4.9c-0.3,2.4-0.3,4.8,0.7,7c1.3,2.8,3.3,4.7,6.6,4.5c1.7-0.1,3.3,0,5,0c0.7,0,1.4,0,2.1,0
		c1.8,0.2,2.6,1.2,2.3,2.9c-0.5,2.3-1,4.7-1.5,7c-1.1,5.4-2.3,10.7-3.4,16.1c-0.6,2.7-2,4.6-4.8,5.1c-3.5,0.6-7,1.2-10.6,1.7
		c-2.9,0.3-5.7,0.5-8.5,0.5c-4.7,0-9.3-0.8-13.7-2.1c-8.3-2.5-13.6-8.1-15.8-16.5c-1.2-4.5-2.1-9.1-1.7-13.8
		c0.4-5.6,1.1-11.1,2.2-16.6c3.1-15.2,6.1-30.4,9.2-45.6c2.5-12.3,5-24.5,7.5-36.8c2.8-13.7,5.5-27.3,8.2-41
		c2.7-13.6,5.4-27.1,8.1-40.7c0.8-4.2,1.7-8.4,2.5-12.6c0.1-0.6,0.2-1.2,0.4-1.8c0.8-2.6,1.9-3.5,4.7-3.5
		C431.8,20.1,437.3,20.2,442.8,20.2z"/>
	<path class="st3" d="M492.1,247.6c-2.8-0.1-6,0.3-9.2-0.5c-1.1-0.3-2.4-0.1-3.6-0.1c-4.2,0-8.4,0-12.5,0c-0.8,0-1.7,0-2.5-0.1
		c-1.3-0.2-2.1-1.2-1.8-2.6c0.4-2,0.8-4,1.2-6c3.2-15.8,6.4-31.5,9.6-47.3c3-14.8,6-29.7,9-44.5c2.2-11,4.5-21.9,6.7-32.9
		c1.4-6.7,2.7-13.3,4-20c0.2-1.2,0.4-2.3,0.7-3.5c0.4-1.6,1.5-2.4,3-2.6c0.7-0.1,1.4-0.1,2.1-0.1c9.9,0,19.8,0,29.7,0
		c1.4,0,2.9,0,4.2,0.6c1.2,0.5,2,1.3,2,2.7c0,1.4-0.1,2.9-0.4,4.3c-4.3,21.5-8.7,43-13.1,64.5c-3.3,16.2-6.4,32.5-9.7,48.7
		c-2.3,11.6-4.7,23.1-7.1,34.7c-0.1,0.6-0.3,1.2-0.5,1.7c-0.5,1.3-1.3,2.3-2.8,2.4c-2,0.2-4,0.4-6,0.5
		C494.4,247.6,493.5,247.6,492.1,247.6z"/>
	<path class="st2" d="M554,85.6c-14.4,0-25.6-7.6-33.5-22.8c-8.6-14.5-22.9-20.6-43.9-18.5c3.2,5.7,14.5,21.9,38.3,18.5l0.4,3
		c-30.3,4.4-42.2-21.8-42.4-22.1l-0.8-1.8l2-0.2c23.1-2.9,39.6,3.8,49,19.8c9.6,18.6,23.9,24.9,43.7,19.4
		c-4.5-11.7-15.8-17.8-34.6-18.4l0.1-3c21,0.1,32.8-5.6,36-17.3c-11.3-3.2-21.7-0.8-31.7,7.2c-1.4,1.3-2.8,2.7-4.4,3.9l-2-2.2
		c1.5-1.5,3-2.8,4.5-4c9.9-9.8,12.5-20.8,8.3-34.1c-12.9,6.8-18.6,18.5-17.5,35.5c0,0,0,0.1,0,0.1l-3,0.2c0,0,0,0,0,0l0,0
		c0,0,0,0,0,0c0,0,0-0.1,0-0.1c-1-15-7-25-18.3-30.7c-2.5,7.6-1.5,15,2.8,22.4l-2.6,1.5c-5.1-8.6-5.9-17.6-2.5-26.5l0.6-1.5l1.4,0.6
		c9.6,4.3,15.9,11.2,19.2,20.9c2.1-12,8.8-20.5,20.1-26l1.5-0.7l0.6,1.6c4.2,11.8,3.4,22.2-2.4,31.4c8.8-4.5,18-5.1,27.8-2l1.3,0.4
		l-0.3,1.3c-2.4,10.9-10.4,17.5-24.6,20c12.3,3.1,19.9,9.7,23.2,20.1l0.5,1.4l-1.4,0.4C563.8,84.7,558.7,85.6,554,85.6z"/>
</g>
<g>
	<g>
		<path class="st1" d="M11.6,308.8l6.7-32.1H42l-1.1,5.4H23.8l-1.5,7.3h16.6l-1.1,5.4H21.1l-2,8.7h18.6l-1.1,5.4H11.6z"/>
		<path class="st1" d="M67.1,308.8h-6.1l-8.7-21.5l-4.5,21.5h-6.1l6.7-32.1h6.2l8.7,21.4l4.5-21.4h6.1L67.1,308.8z"/>
		<path class="st1" d="M89.8,308.8h-7L77,276.7h6.6l4.1,24.2l13.3-24.2h6.5L89.8,308.8z"/>
		<path class="st1" d="M103.4,308.8l6.7-32.1h6.6l-6.7,32.1H103.4z"/>
		<path class="st1" d="M122.8,308.8h-6.6l6.7-32.1h14.2c2.4,0,4.4,0.3,5.7,0.8c1.4,0.5,2.5,1.4,3.3,2.8c0.8,1.3,1.3,3,1.3,4.9
			c0,2.7-0.8,5-2.4,6.7c-1.6,1.8-4.1,2.9-7.4,3.3c0.8,0.8,1.6,1.8,2.4,3c1.5,2.5,3.1,6,4.9,10.6h-7.1c-0.6-1.8-1.7-4.6-3.3-8.5
			c-0.9-2.1-1.9-3.5-2.9-4.2c-0.6-0.4-1.7-0.6-3.3-0.6h-2.7L122.8,308.8z M126.6,290.7h3.5c3.5,0,5.9-0.2,7.1-0.6
			c1.2-0.4,2.1-1.1,2.7-2c0.7-0.9,1-1.9,1-2.8c0-1.2-0.5-2-1.4-2.6c-0.6-0.3-1.8-0.5-3.8-0.5h-7.3L126.6,290.7z"/>
		<path class="st1" d="M150.5,296.2c0-1.9,0.3-3.9,0.9-6c0.7-2.8,1.9-5.3,3.4-7.3c1.5-2.1,3.4-3.7,5.8-4.9c2.3-1.2,5-1.8,7.9-1.8
			c4,0,7.2,1.2,9.6,3.7c2.4,2.5,3.7,5.7,3.7,9.8c0,3.4-0.8,6.7-2.4,9.8c-1.6,3.2-3.7,5.6-6.5,7.3c-2.7,1.7-5.8,2.6-9.2,2.6
			c-3,0-5.5-0.7-7.5-2c-2-1.4-3.5-3-4.3-5C150.9,300.3,150.5,298.2,150.5,296.2z M157,296.1c0,2.2,0.7,4,2,5.5
			c1.3,1.5,3.1,2.2,5.3,2.2c1.8,0,3.5-0.6,5.1-1.8c1.6-1.2,3-3,4.1-5.3c1.1-2.4,1.6-4.7,1.6-7c0-2.5-0.7-4.5-2-5.9s-3.1-2.2-5.2-2.2
			c-3.2,0-5.8,1.5-7.9,4.5C158,289.2,157,292.5,157,296.1z"/>
		<path class="st1" d="M208.9,308.8h-6.1l-8.7-21.5l-4.5,21.5h-6.1l6.7-32.1h6.2l8.7,21.4l4.5-21.4h6.1L208.9,308.8z"/>
		<path class="st1" d="M241.2,308.8h-6.1l-8.7-21.5l-4.5,21.5h-6.1l6.7-32.1h6.2l8.7,21.4l4.5-21.4h6.1L241.2,308.8z"/>
		<path class="st1" d="M247.9,308.8l6.7-32.1h23.8l-1.1,5.4h-17.2l-1.5,7.3h16.6l-1.1,5.4h-16.6l-2,8.7h18.6l-1.1,5.4H247.9z"/>
		<path class="st1" d="M296.2,308.8H290l-1.2-26.8l-5.1,26.8h-5.9l6.7-32.1h9.4l1,22.5l10.9-22.5h9.5l-6.7,32.1h-6l6.3-26.6
			L296.2,308.8z"/>
		<path class="st1" d="M315.1,308.8l6.7-32.1h23.8l-1.1,5.4h-17.2l-1.5,7.3h16.6l-1.1,5.4h-16.6l-2,8.7h18.6l-1.1,5.4H315.1z"/>
		<path class="st1" d="M370.6,308.8h-6.1l-8.7-21.5l-4.5,21.5h-6.1l6.7-32.1h6.2l8.7,21.4l4.5-21.4h6.1L370.6,308.8z"/>
		<path class="st1" d="M391.2,308.8h-6.6l5.6-26.7h-9.4l1.1-5.4h25.3l-1.1,5.4h-9.3L391.2,308.8z"/>
		<path class="st1" d="M418.1,298.4l6.3-0.3c0.1,2,0.4,3.3,1,4c1,1.1,2.7,1.7,5.3,1.7c2.2,0,3.7-0.4,4.7-1.2c1-0.8,1.4-1.7,1.4-2.8
			c0-0.9-0.4-1.7-1.2-2.4c-0.6-0.5-2.1-1.3-4.6-2.3c-2.5-1.1-4.3-2-5.4-2.7c-1.1-0.7-2-1.7-2.7-2.8s-1-2.5-1-4c0-2.7,1-4.9,2.9-6.7
			s4.8-2.7,8.5-2.7c3.8,0,6.7,0.9,8.7,2.6s3.2,4.1,3.4,7l-6.3,0.3c-0.2-1.5-0.7-2.7-1.7-3.5c-0.9-0.8-2.3-1.2-4.2-1.2
			c-1.8,0-3.1,0.3-3.9,1c-0.8,0.6-1.2,1.5-1.2,2.4c0,0.9,0.4,1.7,1.1,2.3c0.7,0.6,2.3,1.5,4.7,2.5c3.7,1.6,6,2.9,7,3.9
			c1.5,1.5,2.3,3.3,2.3,5.6c0,2.8-1.1,5.2-3.4,7.2c-2.2,2-5.4,3-9.3,3c-2.8,0-5.1-0.5-7.2-1.4c-2-0.9-3.4-2.2-4.3-3.9
			C418.4,302.4,418,300.5,418.1,298.4z"/>
		<path class="st1" d="M467.9,301.7h-12.7l-3.8,7.1h-6.8l18.1-32.1h7.3l5.2,32.1H469L467.9,301.7z M467.1,296.4l-1.9-12.9l-7.7,12.9
			H467.1z"/>
		<path class="st1" d="M486,308.8h-6.6l6.7-32.1h14.2c2.4,0,4.4,0.3,5.7,0.8c1.4,0.5,2.5,1.4,3.3,2.8c0.8,1.3,1.3,3,1.3,4.9
			c0,2.7-0.8,5-2.4,6.7c-1.6,1.8-4.1,2.9-7.4,3.3c0.8,0.8,1.6,1.8,2.4,3c1.5,2.5,3.1,6,4.9,10.6H501c-0.6-1.8-1.7-4.6-3.3-8.5
			c-0.9-2.1-1.9-3.5-2.9-4.2c-0.6-0.4-1.7-0.6-3.3-0.6h-2.7L486,308.8z M489.8,290.7h3.5c3.5,0,5.9-0.2,7.1-0.6
			c1.2-0.4,2.1-1.1,2.7-2c0.7-0.9,1-1.9,1-2.8c0-1.2-0.5-2-1.4-2.6c-0.6-0.3-1.8-0.5-3.8-0.5h-7.3L489.8,290.7z"/>
		<path class="st1" d="M511.8,308.8l6.7-32.1h6.6l-5.6,26.7h16.3l-1.1,5.4H511.8z"/>
	</g>
</g>
</svg>
