<svg width="64" height="64" viewBox="0 0 64 64" fill="none" xmlns="http://www.w3.org/2000/svg">
<g clip-path="url(#clip0_24_417)">
<path d="M1.25749 31.617C1.25599 36.9942 2.67193 42.2447 5.36431 46.8726L1 62.6845L17.3073 58.4417C21.8177 60.8781 26.8712 62.1548 32.0066 62.1552H32.0201C48.9731 62.1552 62.7733 48.4664 62.7805 31.6411C62.7838 23.488 59.5869 15.8214 53.7787 10.0535C47.9714 4.28601 40.248 1.10809 32.0189 1.10437C15.0639 1.10437 1.26474 14.7924 1.25774 31.617" fill="url(#paint0_linear_24_417)"/>
<path d="M0.267488 31.6071C0.265738 37.1778 1.73242 42.6161 4.5208 47.4096L0 63.7884L16.892 59.3935C21.5463 61.9116 26.7866 63.2392 32.1188 63.2412H32.1326C49.6938 63.2412 63.9897 49.06 63.9972 31.6324C64.0002 23.1864 60.6883 15.2442 54.6726 9.26958C48.6561 3.29575 40.6565 0.00347287 32.1326 0C14.5684 0 0.274488 14.1792 0.267488 31.6071ZM10.3273 46.5841L9.69657 45.5906C7.04519 41.4073 5.64575 36.573 5.64775 31.6091C5.65325 17.1235 17.5337 5.33829 32.1426 5.33829C39.2173 5.34127 45.866 8.07789 50.8668 13.0431C55.8673 18.0088 58.6189 24.6097 58.6172 31.6304C58.6107 46.116 46.7299 57.9026 32.1326 57.9026H32.1221C27.369 57.9002 22.7075 56.6335 18.6422 54.24L17.6747 53.6707L7.65066 56.2786L10.3273 46.5841Z" fill="url(#paint1_linear_24_417)"/>
<path d="M24.2271 18.3933C23.6307 17.0778 23.0029 17.0513 22.4357 17.0282C21.9712 17.0084 21.4403 17.0099 20.9098 17.0099C20.3788 17.0099 19.5161 17.2081 18.7869 17.9981C18.0569 18.789 16 20.7 16 24.5869C16 28.4738 18.8531 32.2304 19.2509 32.7581C19.6491 33.2847 24.7589 41.5164 32.8515 44.6832C39.5772 47.3148 40.9459 46.7914 42.4056 46.6595C43.8655 46.528 47.1164 44.7489 47.7796 42.9041C48.4433 41.0595 48.4433 39.4783 48.2443 39.1479C48.0453 38.8187 47.5144 38.621 46.7181 38.2261C45.9219 37.8312 42.0074 35.9196 41.2776 35.6559C40.5477 35.3925 40.0169 35.261 39.486 36.0521C38.955 36.8419 37.4303 38.621 36.9656 39.1479C36.5013 39.676 36.0366 39.7418 35.2407 39.3466C34.4439 38.9502 31.8798 38.117 28.8377 35.4257C26.4708 33.3316 24.8729 30.7455 24.4084 29.9545C23.9439 29.1646 24.3586 28.7365 24.7579 28.3428C25.1156 27.9888 25.5543 27.4203 25.9528 26.9591C26.3498 26.4977 26.4823 26.1685 26.7478 25.6417C27.0135 25.1143 26.8805 24.6529 26.6818 24.2577C26.4823 23.8626 24.9351 19.9553 24.2271 18.3933Z" fill="white"/>
</g>
<defs>
<linearGradient id="paint0_linear_24_417" x1="3090.03" y1="6159.12" x2="3090.03" y2="1.10437" gradientUnits="userSpaceOnUse">
<stop stop-color="#1FAF38"/>
<stop offset="1" stop-color="#60D669"/>
</linearGradient>
<linearGradient id="paint1_linear_24_417" x1="3199.86" y1="6378.84" x2="3199.86" y2="0" gradientUnits="userSpaceOnUse">
<stop stop-color="#F9F9F9"/>
<stop offset="1" stop-color="white"/>
</linearGradient>
<clipPath id="clip0_24_417">
<rect width="64" height="64" fill="white"/>
</clipPath>
</defs>
</svg>
